:SAMPLES-PER-SECOND 30
:FULLY-SPECIFIED
:DEGREES
539
root  -16.7277 39.1842 5.21366 162.897 64.03 166.1
RightUpLeg  -6.44823 -11.8584 -19.0743
RightLeg  20.1804 -16.9375 -6.95823
RightFoot  -2.47092 -1.49835 18.8759
RightToes  -5.8209e-011 0 -3.6325e-017
Spine  0.935087 -3.0821 -16.4936
Spine1  25.3336 -8.31294 9.47497
HEad  -23.2825 -22.7034 13.3001
LeftShoulder1  1.51034 -2.79676 -17.3117
LeftArm  10.3474 7.34528 -61.8784
LeftForeArm  108.579 -79.7941 -104.366
LeftHand  -1.0546 -4.21285 12.9885
RightShoulder  1.06138 0.411875 20.8603
RightArm  -50.2677 -24.8044 56.1946
RightForeArm  27.4504 -4.61483 -2.31486
RightHand  0.0456301 1.8032 0.564144
LeftUpLeg  5.48025 7.03535 5.90528
LeftLeg  11.6912 38.3739 5.49319
LeftFoot  -0.972512 0.948261 -10.3487
LeftToes  6.82088e-011 -2.45093e-011 5.71991e-013
540
root  -16.2226 39.1628 5.77192 162.666 68.1999 165.971
RightUpLeg  -7.30928 -13.3847 -16.8749
RightLeg  20.1028 -12.5012 -5.2155
RightFoot  -3.63338 -1.24051 17.9106
RightToes  -5.8209e-011 0 -3.6325e-017
Spine  0.0935826 -3.04477 -14.2715
Spine1  25.6094 -7.77419 8.85274
HEad  -23.3552 -20.4222 12.7882
LeftShoulder1  1.68305 -3.38131 -17.8347
LeftArm  10.7302 11.0563 -62.0391
LeftForeArm  108.087 -79.8773 -103.179
LeftHand  -0.916931 -4.45097 11.0793
RightShoulder  1.06449 0.36807 21.2747
RightArm  -48.6478 -22.1209 55.4436
RightForeArm  25.4035 -3.82713 -1.38035
RightHand  0.00249225 1.56401 -0.0987358
LeftUpLeg  7.43616 7.86412 8.09694
LeftLeg  10.4542 41.3536 5.3326
LeftFoot  0.324343 1.27349 -12.4427
LeftToes  6.82088e-011 -2.45093e-011 5.71991e-013
541
root  -15.748 39.132 6.33994 163.726 72.8929 167.38
RightUpLeg  -8.69951 -10.8869 -13.2841
RightLeg  20.6366 -10.9306 -4.72431
RightFoot  -3.78281 -1.05836 15.5406
RightToes  -5.8209e-011 0 -3.6325e-017
Spine  -0.0115725 -3.01855 -11.223
Spine1  25.5026 -7.1594 7.7359
HEad  -23.4405 -17.6791 12.342
LeftShoulder1  1.86365 -4.08306 -17.9665
LeftArm  10.5255 14.2723 -62.5412
LeftForeArm  104.632 -79.9186 -100.727
LeftHand  -0.871131 -4.32461 10.6769
RightShoulder  1.137 0.57411 21.6866
RightArm  -45.8998 -17.9595 54.5215
RightForeArm  24.7219 -2.97865 0.0266588
RightHand  -0.0961219 1.78683 -1.70663
LeftUpLeg  9.46289 8.88956 10.8495
LeftLeg  9.99067 44.0081 5.74523
LeftFoot  1.07277 1.49821 -13.7917
LeftToes  6.82088e-011 -2.45093e-011 5.71991e-013
542
root  -15.3228 39.1451 6.90031 166.312 76.0399 170.166
RightUpLeg  -9.0192 -7.0015 -10.1137
RightLeg  20.7128 -12.1661 -5.23482
RightFoot  -4.19 -0.936655 14.4677
RightToes  -5.8209e-011 0 -3.6325e-017
Spine  0.336984 -3.5951 -9.64063
Spine1  25.1945 -7.81246 7.93146
HEad  -23.3798 -14.8129 11.5905
LeftShoulder1  2.00457 -4.63034 -18.0525
LeftArm  10.7295 15.9431 -62.9494
LeftForeArm  99.2648 -79.9141 -97.3855
LeftHand  -0.932642 -4.01987 11.7515
RightShoulder  1.20667 0.789082 21.9233
RightArm  -41.987 -12.3409 53.5885
RightForeArm  26.6171 -2.15505 1.84455
RightHand  -0.221796 2.63702 -3.41174
LeftUpLeg  10.0239 9.40824 13.0135
LeftLeg  11.1114 42.9401 7.15809
LeftFoot  1.16333 1.23929 -11.332
LeftToes  6.82088e-011 -2.45093e-011 5.71991e-013
543
root  -14.973 39.256 7.42172 168.877 76.5546 172.793
RightUpLeg  -7.97044 -6.04965 -8.3767
RightLeg  19.5778 -12.9386 -5.2656
RightFoot  -4.87905 -0.874465 14.8222
RightToes  -5.8209e-011 0 -3.6325e-017
Spine  1.10656 -4.76311 -10.1296
Spine1  24.5775 -9.8454 9.96038
HEad  -22.8569 -12.6187 10.3107
LeftShoulder1  2.13196 -5.12559 -18.1229
LeftArm  12.4885 15.0518 -62.7065
LeftForeArm  93.4232 -79.9313 -92.6589
LeftHand  -0.999332 -3.90481 12.7179
RightShoulder  1.23242 0.873204 21.9706
RightArm  -37.1993 -6.52318 52.9472
RightForeArm  30.5482 -0.326621 4.25989
RightHand  -0.38428 3.83531 -5.09343
LeftUpLeg  8.44796 8.71702 13.712
LeftLeg  13.9662 37.6221 9.5492
LeftFoot  1.75125 0.617696 -5.54249
LeftToes  6.82088e-011 -2.45093e-011 5.71991e-013
544
root  -14.6799 39.4086 7.86199 169.021 76.2619 173.155
RightUpLeg  -6.49987 -7.56706 -7.74026
RightLeg  17.8915 -11.9747 -4.51275
RightFoot  -5.17258 -0.84504 14.9456
RightToes  -5.8209e-011 0 -3.6325e-017
Spine  2.17406 -5.55027 -10.8621
Spine1  23.5755 -11.4332 12.1918
HEad  -21.5723 -11.6906 8.75856
LeftShoulder1  2.21969 -5.66118 -17.6027
LeftArm  15.9983 11.502 -62.2031
LeftForeArm  88.0341 -79.9564 -86.5383
LeftHand  -0.971631 -4.02821 12.2199
RightShoulder  1.24876 0.968 21.7209
RightArm  -32.0505 -2.23334 52.7291
RightForeArm  34.1911 3.81906 7.23731
RightHand  -0.567276 4.85494 -6.71931
LeftUpLeg  6.11049 6.18729 13.2166
LeftLeg  18.047 32.2438 11.6753
LeftFoot  3.67942 0.159271 -1.34827
LeftToes  6.82088e-011 -2.45093e-011 5.71991e-013
